<?xml version="1.0" encoding="utf-8"?>
<!-- Generator: Adobe Illustrator 20.1.0, SVG Export Plug-In . SVG Version: 6.00 Build 0)  -->
<svg version="1.1" id="Layer_1" xmlns="http://www.w3.org/2000/svg" xmlns:xlink="http://www.w3.org/1999/xlink" x="0px" y="0px"
	 width="20px" height="20px" viewBox="0 0 20 20" style="enable-background:new 0 0 20 20;" xml:space="preserve">
<path d="M18,0H2C0.9,0,0,0.9,0,2v16c0,1.1,0.9,2,2,2h16c1.1,0,2-0.9,2-2V2C20,0.9,19.1,0,18,0z M10,6c2.2,0,4,1.8,4,4s-1.8,4-4,4
	s-4-1.8-4-4S7.8,6,10,6z M2.5,18C2.2,18,2,17.8,2,17.6c0,0,0,0,0-0.1V9h2.1C4,9.3,4,9.7,4,10c0,3.3,2.7,6,6,6s6-2.7,6-6
	c0-0.3,0-0.7-0.1-1H18v8.5c0,0.3-0.2,0.5-0.4,0.5c0,0,0,0-0.1,0H2.5z M18,4.5C18,4.8,17.8,5,17.6,5c0,0,0,0-0.1,0h-2
	C15.2,5,15,4.8,15,4.6c0,0,0,0,0-0.1v-2C15,2.2,15.2,2,15.4,2c0,0,0,0,0.1,0h2C17.8,2,18,2.2,18,2.4c0,0,0,0,0,0.1V4.5z"/>
</svg>
