<?xml version="1.0" encoding="utf-8"?>
<!-- Generator: Adobe Illustrator 20.1.0, SVG Export Plug-In . SVG Version: 6.00 Build 0)  -->
<svg version="1.0" id="Layer_1" xmlns="http://www.w3.org/2000/svg" xmlns:xlink="http://www.w3.org/1999/xlink" x="0px" y="0px"
	 width="27px" height="15px" viewBox="0 0 27 15" style="enable-background:new 0 0 27 15;" xml:space="preserve">
<style type="text/css">
	.st0{fill:#FFFFFF;}
</style>
<path class="st0" d="M26.5,13.6l-0.1-0.2c-0.7-1.1-1.6-2.1-2.6-3c-0.6-0.6-1-0.9-1.1-1.1c-0.3-0.3-0.4-0.8-0.2-1.2
	c0.3-0.6,0.8-1.2,1.2-1.8l0.9-1.2c1.6-2.1,2.2-3.4,2-4L26.5,1c-0.1-0.1-0.2-0.2-0.4-0.2c-0.3-0.1-0.6-0.1-0.9,0h-3.9
	c-0.1,0-0.2,0-0.3,0h-0.3c-0.1,0-0.1,0.1-0.2,0.1c-0.1,0.1-0.1,0.2-0.1,0.2C20,2.2,19.5,3.2,19,4.2c-0.3,0.6-0.6,1.1-0.9,1.5
	c-0.2,0.3-0.5,0.6-0.7,0.9C17.1,6.7,17,6.9,16.8,7s-0.3,0.2-0.4,0.2l-0.2-0.1C16.1,7,16,6.9,15.9,6.8c-0.1-0.2-0.1-0.3-0.2-0.5V1.6
	c0-0.2,0-0.4,0-0.6s-0.1-0.3-0.1-0.4c-0.1-0.1-0.2-0.3-0.3-0.3C15.2,0.1,15,0.1,14.8,0c-0.6,0-1.2-0.1-1.8,0c-1.1-0.1-2.2,0-3.3,0.3
	C9.5,0.4,9.4,0.6,9.2,0.7C9,0.9,9,1.1,9.1,1.1c0.5,0,0.9,0.2,1.2,0.6l0.1,0.2c0.1,0.2,0.2,0.4,0.2,0.6c0.1,0.3,0.1,0.7,0.1,1
	c0,0.6,0,1.1,0,1.7c0,0.5-0.1,0.8-0.1,1.1c0,0.2-0.1,0.4-0.2,0.6c0,0.1-0.1,0.2-0.2,0.3l-0.1,0.1c-0.1,0-0.2,0.1-0.4,0.1
	S9.4,7.3,9.2,7.2C9.1,7,8.9,6.9,8.8,6.7c-0.3-0.3-0.5-0.6-0.7-1C7.8,5.3,7.6,4.8,7.3,4.3L7.1,3.9C7,3.6,6.8,3.3,6.5,2.8
	s-0.4-1-0.6-1.4c0-0.2-0.2-0.4-0.3-0.5H5.5C5.4,0.8,5.4,0.8,5.3,0.7c-0.1,0-0.2,0-0.3,0H1.2C0.9,0.7,0.6,0.8,0.4,1h0
	c0,0.1,0,0.1,0,0.2s0,0.3,0.1,0.4C1,2.9,1.6,4.1,2.2,5.3s1.2,2.2,1.7,2.9c0.5,0.7,1,1.4,1.5,2.1c0.5,0.7,0.9,1.1,1,1.2L6.8,12
	l0.3,0.3c0.3,0.3,0.7,0.5,1,0.8C8.6,13.4,9,13.7,9.5,14c0.6,0.3,1.2,0.6,1.8,0.7c0.7,0.2,1.3,0.3,2,0.2h1.6c0.3,0,0.5-0.1,0.7-0.3
	l0.1-0.1c0-0.1,0.1-0.2,0.1-0.3s0-0.2,0-0.4c0-0.4,0-0.7,0.1-1.1c0-0.2,0.1-0.5,0.2-0.7c0.1-0.1,0.2-0.3,0.3-0.4
	c0.1-0.1,0.1-0.1,0.2-0.2h0.1c0.3-0.1,0.6,0,0.8,0.2c0.3,0.2,0.6,0.5,0.8,0.8c0.3,0.3,0.6,0.7,0.9,1.1c0.3,0.3,0.6,0.6,1,0.9
	l0.3,0.2c0.2,0.1,0.5,0.2,0.7,0.3S21.7,15,22,15l3.5-0.1c0.3,0,0.6,0,0.8-0.2c0.2-0.1,0.3-0.2,0.3-0.4s0-0.3,0-0.5
	C26.7,13.8,26.6,13.7,26.5,13.6L26.5,13.6z"/>
</svg>
